<svg width="522" height="244" viewBox="0 0 522 244" fill="none" xmlns="http://www.w3.org/2000/svg">
<g clip-path="url(#clip0_211_193)">
<path d="M521.4 0H466.31L460.3 19.38L427.79 135.73L377.97 16.67C373.92 6.54 364.26 0 353.23 0C342.2 0 332.66 6.54 328.66 16.56L278.94 135.4L252.67 43.42C245.37 17.85 221.69 0 195.08 0H106.31C86.5 0.28 68.75 4.76 53.35 13.36V0H0V243.18H53.35V118.81C53.61 89.28 62.87 69.88 81.68 59.48C87.88 56.02 94.8 54 102.29 53.46C89.46 73.45 82.97 96.31 82.97 121.61C82.97 158.79 96.11 189.75 121.97 213.57C142.96 233.22 167.55 243.18 195.16 243.18C214.69 242.97 232.82 237.88 249.21 228.03C253.56 237.24 262.77 243.18 273.22 243.18H273.56C284.48 243.18 294.17 236.63 298.19 226.59L353.29 95.36L408.34 226.48C412.39 236.63 422.06 243.19 432.99 243.19H433.39C445.08 243.19 455.26 235.69 458.73 224.51L512.12 33.92L521.4 0.01V0ZM233.37 173.35C232.27 174.44 231.12 175.52 229.91 176.56C219.56 185.51 208.16 189.85 195.08 189.85C175.79 189.85 160.64 181.19 148.8 163.38C140.51 150.84 136.31 136.79 136.31 121.61C136.31 99.37 144.2 81.35 160.43 66.53C167.49 60.06 175.77 55.9 185.05 54.16C186 53.98 186.94 53.9 187.88 53.9C194.81 53.9 201.24 58.64 203.2 65.63L233.38 173.35H233.37Z" fill="white"/>
<path d="M521.4 199.45H478.02V243.18H521.4V199.45Z" fill="white"/>
</g>
<defs>
<clipPath id="clip0_211_193">
<rect width="521.4" height="243.18" fill="white"/>
</clipPath>
</defs>
</svg>
